<svg xmlns="http://www.w3.org/2000/svg" viewBox="0 0 256 256" role="img" aria-label="Virgen - Hidráulica Caacupé">
  <circle cx="128" cy="66" r="26" fill="#FFD54F"/>
  <circle cx="128" cy="66" r="18" fill="#FFF8E1"/>
  <path d="M110 42 L128 28 L146 42 L140 58 H116 Z" fill="#FFC107"/>
  <circle cx="128" cy="30" r="4" fill="#FFB300"/>
  <circle cx="128" cy="74" r="16" fill="#FFE0B2"/>
  <path d="M56 224 C64 170, 86 124, 128 106 C170 124, 192 170, 200 224 Z" fill="#1D4ED8"/>
  <path d="M84 224 C90 178, 104 142, 128 128 C152 142, 166 178, 172 224 Z" fill="#93C5FD" opacity="0.9"/>
  <path d="M104 224 C108 178, 116 150, 128 142 C140 150, 148 178, 152 224 Z" fill="#FFFFFF"/>
  <path d="M122 146 C118 154, 118 164, 122 172 C124 176, 132 176, 134 172 C138 164, 138 154, 134 146 C132 142, 124 142, 122 146 Z" fill="#FFE0B2"/>
  <path d="M128 160 v18 M120 168 h16" stroke="#64748B" stroke-width="4" stroke-linecap="round"/>
  <rect x="70" y="224" width="116" height="10" rx="0" fill="#0F172A" opacity="0.35"/>
</svg>